Coordinates
version=1
nRows=27
nColumns=12
inDegrees=yes

Units are S.I. units (second, meters, Newtons, ...)
Angles are in degrees

endheader
time	SC_y	SC_z	SC_x	AC_y	AC_z	AC_x	GH_y	GH_z	GH_yy	EL_x	PS_y
       0.0              -23.54          19.89          29.24          50.56         -1.969          6.486          4.019          67.01         -2.616          46.21          152.0
    0.0217              -23.54          19.89          29.24          50.57         -1.971          6.486          3.995           67.0         -2.589          46.21          152.0
    0.0434              -23.54          19.89          29.24          50.57         -1.973          6.487           3.97          66.99         -2.561          46.22          152.0
    0.0651              -23.54          19.89          29.25          50.57         -1.975          6.487          3.943          66.98         -2.531          46.22          152.0
    0.0868              -23.54           19.9          29.25          50.57         -1.977          6.487          3.914          66.97         -2.499          46.22          151.9
    0.1085              -23.54           19.9          29.25          50.57          -1.98          6.488          3.884          66.96         -2.465          46.23          151.9
    0.1302              -23.54           19.9          29.26          50.57         -1.983          6.488          3.851          66.94         -2.429          46.23          151.9
    0.1519              -23.54           19.9          29.26          50.57         -1.985          6.489          3.816          66.93          -2.39          46.23          151.9
    0.1736              -23.54          19.91          29.26          50.58         -1.989          6.489          3.779          66.92         -2.349          46.24          151.8
    0.1953              -23.54          19.91          29.27          50.58         -1.992           6.49          3.739           66.9         -2.304          46.24          151.8
     0.217              -23.54          19.91          29.27          50.58         -1.996           6.49          3.696          66.88         -2.256          46.24          151.8
    0.2387              -23.54          19.92          29.28          50.58         -1.999          6.491          3.649          66.87         -2.205          46.25          151.8
    0.2604              -23.54          19.92          29.28          50.59         -2.004          6.492          3.599          66.85          -2.15          46.25          151.7
    0.2821              -23.54          19.93          29.29          50.59         -2.008          6.492          3.545          66.83          -2.09          46.26          151.7
    0.3038              -23.54          19.93          29.29          50.59         -2.013          6.493          3.487           66.8         -2.025          46.27          151.7
    0.3255              -23.54          19.94           29.3           50.6         -2.018          6.494          3.424          66.78         -1.954          46.27          151.6
    0.3472              -23.54          19.94          29.31           50.6         -2.024          6.495          3.355          66.75         -1.878          46.28          151.6
    0.3689              -23.54          19.95          29.31           50.6          -2.03          6.496           3.28          66.72         -1.795          46.29          151.5
    0.3906              -23.54          19.95          29.32          50.61         -2.037          6.497          3.198          66.69         -1.704           46.3          151.5
    0.4123              -23.54          19.96          29.33          50.61         -2.045          6.499          3.109          66.66         -1.604          46.31          151.4
     0.434              -23.54          19.97          29.34          50.62         -2.053            6.5           3.01          66.62         -1.495          46.32          151.4
    0.4557              -23.54          19.98          29.35          50.62         -2.062          6.501          2.902          66.58         -1.375          46.33          151.3
    0.4774              -23.54          19.99          29.37          50.63         -2.072          6.503          2.782          66.53         -1.242          46.34          151.2
    0.4991              -23.54           20.0          29.38          50.64         -2.083          6.505           2.65          66.48         -1.095          46.35          151.1
    0.5208              -23.54          20.01          29.39          50.64         -2.095          6.507          2.502          66.42        -0.9309          46.37          151.0
    0.5425              -23.53          20.02          29.41          50.65         -2.109          6.509          2.338          66.36        -0.7483          46.39          150.9
    0.5642              -23.53          20.04          29.43          50.66         -2.124          6.512          2.154          66.28        -0.5437           46.4          150.8
